<svg id="c4113c84-7548-4ed5-8b94-7e12ae8fda5f" data-name="Слой 1" xmlns="http://www.w3.org/2000/svg" viewBox="0 0 599.36 369.05"><title>logo</title><path d="M331.38,559.61c.11,1.5-.67,2.24-2.33,2.24A62.35,62.35,0,0,1,320,560q-7.51-1.83-9.25-2.49-17.35,6.8-33.29,6.8-25.65,0-42.09-17.1-16.26-16.85-16.26-42.58,0-26.31,15.77-43.66,16.26-17.94,42.25-17.93a59.13,59.13,0,0,1,23.74,4.81,45,45,0,0,1,18.92,14.94,6.39,6.39,0,0,1,1.42,2.83q0,2.66-7.43,11.91t-9.59,9.25c-.33,0-1.61-1.13-3.82-3.4a35.3,35.3,0,0,0-8.3-6.31,28.91,28.91,0,0,0-13.95-3.4q-12.45,0-19.75,9.29-6.81,8.55-6.81,21.34,0,13.53,7.06,21.41,7.31,8.14,20.67,8.14,8.46,0,18.92-4.24-.24-2.73-1.49-13.94a117.45,117.45,0,0,1-1.08-14c0-1.05.36-1.68,1.08-1.9a3.61,3.61,0,0,1,1.33-.17q2.4,0,7.26.46t7.35.45q2.65,0,8-.37c3.55-.25,6.2-.37,8-.37,1.39,0,2.08.91,2.08,2.73q0,4-.46,12t-.46,12q0,10.7,1.58,32Z" transform="translate(-219.07 -197)"/><path d="M418.45,517.19q0,8.38-5.4,9.55-.9.16-17.18,1.83-9.8,1.08-29.22,2.57,1.17,5.4,7.06,8.22a24.88,24.88,0,0,0,11,2.32,31.41,31.41,0,0,0,14.85-4l6.31-4q1.76.84,5.86,8.47t4.1,9.71c0,.39-.41,1-1.24,1.91q-10.12,10.88-31.46,10.87-19.75,0-31.88-11.53-12.45-11.71-12.45-31.3,0-19.08,11.13-31.29,11.44-12.62,30.38-12.62a36.09,36.09,0,0,1,27.06,11.62A38.63,38.63,0,0,1,418.45,517.19Zm-29.05-5.06a12.86,12.86,0,0,0-3.65-9.05,11.56,11.56,0,0,0-8.72-3.9,10.47,10.47,0,0,0-8.63,4.4,15.08,15.08,0,0,0-3.16,9.55c0,1.49.78,2.24,2.33,2.24a146.33,146.33,0,0,0,19.09-1.91C388.48,513.18,389.4,512.74,389.4,512.13Z" transform="translate(-219.07 -197)"/><path d="M482.53,507.65s-1.73-.44-5-1.33a32.65,32.65,0,0,0-8-1.33c-4.93,0-8.85,1.48-11.79,4.44s-4.4,6.91-4.4,11.83q0,7.63,4.82,12t12.53,4.35a22.06,22.06,0,0,0,8.22-1.86,41.77,41.77,0,0,0,4.32-1.87q1.41,0,3.65,10.54,1.9,9.63,1.91,12.78t-10.3,5.4a63.32,63.32,0,0,1-12.86,1.74q-18.27,0-30.13-12.28T423.6,521.43q0-18.18,11.91-30.59t30.09-12.41a43.43,43.43,0,0,1,21.75,5.31c1.44.78,2.15,1.52,2.15,2.24s-.83,4-2.49,9.8q-2.33,8.39-3,10.12C483.51,507.07,483,507.65,482.53,507.65Z" transform="translate(-219.07 -197)"/><path d="M590.53,508.06q0,18.34-18,27.89c-1.1.56-1.66,1.14-1.66,1.75q0,1.41,7.72,11.74t7.72,10.84q0,2.24-22,2.24c-5.64,0-8.91-.72-9.79-2.16q-3.32-5.57-10.38-15.94-.4-.49-14.94-1.16,0,2.57.09,8.22t.08,8.38a2.44,2.44,0,0,1-2.41,2.74c-1,.11-5.37.17-13.11.17a104.52,104.52,0,0,1-11.71-.34c-1.49-.27-2.24-1.41-2.24-3.4v-50.8q0-10.22-.75-30.55t-.74-30.46c0-1.33.74-2,2.24-2.08q4.39,0,13.2-.16c1.55-.11,4.23-.45,8-1a57.67,57.67,0,0,1,8-.75c.88,0,1.32.81,1.32,2.41q0,3.15-.49,8.55c-.39,4.21-.61,7.08-.67,8.63q-.75,17.85-.74,27.65c0,1.55.19,2.35.58,2.4a13.37,13.37,0,0,0,2-1.82,35.05,35.05,0,0,1,26.23-11.21q14.52,0,23.08,6.64Q590.53,493.88,590.53,508.06Zm-33,5.4q0-10.05-11.37-10.05-5.07,0-10.79,3.82-6.15,4.08-6.14,8.89c0,4.59.63,7.35,1.9,8.3q1.5,1,9.55,1Q557.57,525.41,557.57,513.46Z" transform="translate(-219.07 -197)"/><path d="M680.34,521.43q0,18.92-11.58,30.71t-30.42,11.79q-18.27,0-30.05-11.62T596.5,522.42q0-19.25,11.29-31.25t30.55-12q18.75,0,30.38,11.74T680.34,521.43Zm-27.23,0a17.88,17.88,0,0,0-4.06-11.58,13,13,0,0,0-10.55-5A13.37,13.37,0,0,0,627.71,510a18.59,18.59,0,0,0,0,23,13.79,13.79,0,0,0,21.5,0A17.72,17.72,0,0,0,653.11,521.43Z" transform="translate(-219.07 -197)"/><path d="M676,197c-34,31-57,76-47,124,6,28,28,52,57,48,20-9,41-15,63-9,23,6,41,20,53,40,32,54,14,121-26,163-17-11-38-2-57,0-30,3-60,5-90,0,42-2,85-24,105-63,9-18,12-38,7-58-5-16-16-31-34-35-29-5-54-17-69-42-33-57-7-127,38-168Z" transform="translate(-219.07 -197)"/></svg>